<svg id="svg2" xmlns="http://www.w3.org/2000/svg" xmlns:xlink="http://www.w3.org/1999/xlink" width="376.29" height="430.08" viewBox="0 0 376.29 430.08">
  <defs>
    <style>
      .cls-1 {
        fill: navy;
        fill-rule: evenodd;
      }

      .cls-1, .cls-10, .cls-14, .cls-15, .cls-16, .cls-17, .cls-24, .cls-4, .cls-5, .cls-8 {
        stroke: #000;
      }

      .cls-11, .cls-2, .cls-21, .cls-22, .cls-25, .cls-7 {
        fill: #fff;
      }

      .cls-3 {
        filter: url(#filter4961);
      }

      .cls-4 {
        fill: #a40;
      }

      .cls-5 {
        fill: #fc0;
      }

      .cls-6 {
        fill: #ff0;
      }

      .cls-23, .cls-7 {
        opacity: 0.7;
      }

      .cls-11, .cls-12, .cls-19, .cls-23, .cls-24, .cls-25, .cls-7 {
        isolation: isolate;
      }

      .cls-14, .cls-8 {
        fill: #ccc;
      }

      .cls-9 {
        fill: #666;
      }

      .cls-10 {
        fill: #b3b3b3;
      }

      .cls-11 {
        opacity: 0.5;
      }

      .cls-12 {
        fill: #d3bc5f;
        opacity: 0.77;
      }

      .cls-13 {
        fill: #ffd300;
      }

      .cls-14 {
        stroke-width: 0.72px;
      }

      .cls-15 {
        fill: #333;
      }

      .cls-16, .cls-28 {
        fill: none;
      }

      .cls-17, .cls-18, .cls-20 {
        fill: red;
      }

      .cls-18, .cls-20, .cls-21, .cls-22, .cls-26, .cls-27 {
        stroke: #1a1a1a;
      }

      .cls-18, .cls-21 {
        stroke-width: 0.5px;
      }

      .cls-19 {
        fill: #003;
        opacity: 0.33;
      }

      .cls-20, .cls-22 {
        stroke-width: 0.13px;
      }

      .cls-23 {
        fill: #d9d9d9;
      }

      .cls-24 {
        opacity: 0.44;
      }

      .cls-25 {
        opacity: 0.19;
      }

      .cls-26 {
        fill: #1a1a1a;
      }

      .cls-27 {
        fill: url(#Sfumatura_senza_nome);
      }

      .cls-28 {
        stroke: #fff;
        stroke-width: 2.15px;
      }
    </style>
    <filter id="filter4961" name="filter4961">
      <feGaussianBlur result="result0" stdDeviation="2" in="SourceAlpha"/>
      <feComposite result="result3" operator="arithmetic" k2="1" k3="10" in="SourceGraphic" in2="result0"/>
      <feComposite result="result4" operator="in" k2="1" in="result3" in2="result3"/>
    </filter>
    <linearGradient id="Sfumatura_senza_nome" data-name="Sfumatura senza nome" x1="645.25" y1="294.03" x2="684.77" y2="291.81" gradientTransform="matrix(0.65, 0.49, 0.53, -0.71, -344.46, 45.37)" gradientUnits="userSpaceOnUse">
      <stop offset="0" stop-color="#939393"/>
      <stop offset="0.06" stop-color="#393939"/>
      <stop offset="0.13" stop-color="#3a3a3a"/>
      <stop offset="0.25" stop-color="#424242"/>
      <stop offset="0.4" stop-color="#343434"/>
      <stop offset="0.72" stop-color="#9b9b9b"/>
      <stop offset="1" stop-color="#424242"/>
    </linearGradient>
  </defs>
  <g id="layer1">
    <g id="g4042">
      <g id="g4022">
        <path id="path2816" class="cls-1" d="M329.07,255.76A164.29,164.29,0,1,1,164.78,91.47,164.29,164.29,0,0,1,329.07,255.76Z" transform="translate(0.01 -3.17)"/>
        <path id="path3778" class="cls-2" d="M72.1,145.44c9.32-.1,9.77-16.46,11.54-25.45-.41,9.46-2,25.68,7.46,26.13-9.57-.82-10.17,12.07-11,23.24,1.16-10.89,1.21-24.12-8-23.92Z" transform="translate(0.01 -3.17)"/>
        <g id="use3780">
          <path id="path3778-2" data-name="path3778" class="cls-2" d="M251.5,320.88c9.32-.1,9.77-16.46,11.54-25.45-.41,9.46-2,25.68,7.46,26.13-9.57-.82-10.17,12.07-11,23.24,1.16-10.89,1.21-24.12-8-23.92Z" transform="translate(0.01 -3.17)"/>
        </g>
        <g id="use3782">
          <g id="use3780-2" data-name="use3780">
            <path id="path3778-3" data-name="path3778" class="cls-2" d="M29.5,293.88c9.32-.1,9.77-16.46,11.54-25.45-.41,9.46-2,25.68,7.46,26.13-9.57-.82-10.17,12.07-11,23.24,1.16-10.89,1.21-24.12-8-23.92Z" transform="translate(0.01 -3.17)"/>
          </g>
        </g>
        <g id="use3784">
          <g id="use3782-2" data-name="use3782">
            <g id="use3780-3" data-name="use3780">
              <path id="path3778-4" data-name="path3778" class="cls-2" d="M13,233.07c9.33-.1,9.78-16.46,11.54-25.44-.41,9.45-2,25.68,7.47,26.12-9.57-.82-10.18,12.07-11,23.24,1.15-10.89,1.2-24.11-8-23.92Z" transform="translate(0.01 -3.17)"/>
            </g>
          </g>
        </g>
        <g id="use3786">
          <g id="use3784-2" data-name="use3784">
            <g id="use3782-3" data-name="use3782">
              <g id="use3780-4" data-name="use3780">
                <path id="path3778-5" data-name="path3778" class="cls-2" d="M216.5,381.88c9.33-.1,9.78-16.46,11.54-25.44-.41,9.45-2,25.68,7.47,26.12-9.57-.82-10.18,12.07-11,23.24,1.15-10.89,1.2-24.11-8-23.92Z" transform="translate(0.01 -3.17)"/>
              </g>
            </g>
          </g>
        </g>
        <g id="use3788">
          <g id="use3786-2" data-name="use3786">
            <g id="use3784-3" data-name="use3784">
              <g id="use3782-4" data-name="use3782">
                <g id="use3780-5" data-name="use3780">
                  <path id="path3778-6" data-name="path3778" class="cls-2" d="M300.5,248.88c9.33-.1,9.78-16.46,11.54-25.44-.41,9.45-2,25.68,7.47,26.12-9.57-.82-10.18,12.07-11,23.24,1.15-10.89,1.2-24.11-8-23.92Z" transform="translate(0.01 -3.17)"/>
                </g>
              </g>
            </g>
          </g>
        </g>
        <g id="use3790">
          <g id="use3780-6" data-name="use3780">
            <path id="path3778-7" data-name="path3778" class="cls-2" d="M267.5,356.69c5.89-.06,6.17-10.4,7.29-16.07-.26,6-1.27,16.22,4.71,16.5-6-.52-6.42,7.62-7,14.68.73-6.88.76-15.23-5-15.11Z" transform="translate(0.01 -3.17)"/>
          </g>
        </g>
        <g id="use3792">
          <g id="use3790-2" data-name="use3790">
            <g id="use3780-7" data-name="use3780">
              <path id="path3778-8" data-name="path3778" class="cls-2" d="M295.5,303.69c5.89-.06,6.17-10.4,7.29-16.07-.26,6-1.27,16.22,4.71,16.5-6-.52-6.42,7.62-7,14.68.73-6.88.76-15.23-5-15.11Z" transform="translate(0.01 -3.17)"/>
            </g>
          </g>
        </g>
        <g id="use3794">
          <g id="use3792-2" data-name="use3792">
            <g id="use3790-3" data-name="use3790">
              <g id="use3780-8" data-name="use3780">
                <path id="path3778-9" data-name="path3778" class="cls-2" d="M232.5,284.69c5.89-.06,6.17-10.4,7.29-16.07-.26,6-1.27,16.22,4.71,16.5-6-.52-6.42,7.62-7,14.68.73-6.88.76-15.23-5-15.11Z" transform="translate(0.01 -3.17)"/>
              </g>
            </g>
          </g>
        </g>
        <g id="use3796">
          <g id="use3794-2" data-name="use3794">
            <g id="use3792-3" data-name="use3792">
              <g id="use3790-4" data-name="use3790">
                <g id="use3780-9" data-name="use3780">
                  <path id="path3778-10" data-name="path3778" class="cls-2" d="M123.94,187.13c5.89-.06,6.17-10.39,7.29-16.07-.26,6-1.27,16.22,4.71,16.5-6-.51-6.42,7.63-7,14.68.73-6.88.76-15.23-5-15.11Z" transform="translate(0.01 -3.17)"/>
                </g>
              </g>
            </g>
          </g>
        </g>
        <g id="use3798">
          <g id="use3796-2" data-name="use3796">
            <g id="use3794-3" data-name="use3794">
              <g id="use3792-4" data-name="use3792">
                <g id="use3790-5" data-name="use3790">
                  <g id="use3780-10" data-name="use3780">
                    <path id="path3778-11" data-name="path3778" class="cls-2" d="M76,212.26c5.89-.06,6.18-10.4,7.29-16.07-.26,6-1.27,16.22,4.71,16.5-6-.52-6.42,7.62-7,14.68.73-6.88.76-15.23-5-15.11Z" transform="translate(0.01 -3.17)"/>
                  </g>
                </g>
              </g>
            </g>
          </g>
        </g>
        <g id="use3800">
          <g id="use3798-2" data-name="use3798">
            <g id="use3796-3" data-name="use3796">
              <g id="use3794-4" data-name="use3794">
                <g id="use3792-5" data-name="use3792">
                  <g id="use3790-6" data-name="use3790">
                    <g id="use3780-11" data-name="use3780">
                      <path id="path3778-12" data-name="path3778" class="cls-2" d="M138.12,136.58c5.89-.06,6.18-10.4,7.29-16.07-.26,6-1.27,16.22,4.71,16.5-6-.52-6.42,7.62-7,14.68.73-6.88.76-15.23-5-15.11Z" transform="translate(0.01 -3.17)"/>
                    </g>
                  </g>
                </g>
              </g>
            </g>
          </g>
        </g>
        <g id="use3802">
          <g id="use3800-2" data-name="use3800">
            <g id="use3798-3" data-name="use3798">
              <g id="use3796-4" data-name="use3796">
                <g id="use3794-5" data-name="use3794">
                  <g id="use3792-6" data-name="use3792">
                    <g id="use3790-7" data-name="use3790">
                      <g id="use3780-12" data-name="use3780">
                        <path id="path3778-13" data-name="path3778" class="cls-2" d="M162.51,113.69c5.88-.06,6.17-10.4,7.28-16.07-.26,6-1.27,16.22,4.72,16.5-6-.52-6.43,7.62-7,14.68.73-6.88.76-15.23-5-15.11Z" transform="translate(0.01 -3.17)"/>
                      </g>
                    </g>
                  </g>
                </g>
              </g>
            </g>
          </g>
        </g>
        <g id="use3804">
          <g id="use3802-2" data-name="use3802">
            <g id="use3800-3" data-name="use3800">
              <g id="use3798-4" data-name="use3798">
                <g id="use3796-5" data-name="use3796">
                  <g id="use3794-6" data-name="use3794">
                    <g id="use3792-7" data-name="use3792">
                      <g id="use3790-8" data-name="use3790">
                        <g id="use3780-13" data-name="use3780">
                          <path id="path3778-14" data-name="path3778" class="cls-2" d="M178.51,381.69c5.88-.06,6.17-10.4,7.28-16.07-.26,6-1.27,16.22,4.72,16.5-6-.52-6.43,7.62-7,14.68.73-6.88.76-15.23-5-15.11Z" transform="translate(0.01 -3.17)"/>
                        </g>
                      </g>
                    </g>
                  </g>
                </g>
              </g>
            </g>
          </g>
        </g>
        <g id="use3806">
          <g id="use3804-2" data-name="use3804">
            <g id="use3802-3" data-name="use3802">
              <g id="use3800-4" data-name="use3800">
                <g id="use3798-5" data-name="use3798">
                  <g id="use3796-6" data-name="use3796">
                    <g id="use3794-7" data-name="use3794">
                      <g id="use3792-8" data-name="use3792">
                        <g id="use3790-9" data-name="use3790">
                          <g id="use3780-14" data-name="use3780">
                            <path id="path3778-15" data-name="path3778" class="cls-2" d="M141.51,401.69c5.88-.06,6.17-10.4,7.28-16.07-.26,6-1.27,16.22,4.72,16.5-6-.52-6.43,7.62-7,14.68.73-6.88.76-15.23-5-15.11Z" transform="translate(0.01 -3.17)"/>
                          </g>
                        </g>
                      </g>
                    </g>
                  </g>
                </g>
              </g>
            </g>
          </g>
        </g>
        <g id="use3808">
          <g id="use3806-2" data-name="use3806">
            <g id="use3804-3" data-name="use3804">
              <g id="use3802-4" data-name="use3802">
                <g id="use3800-5" data-name="use3800">
                  <g id="use3798-6" data-name="use3798">
                    <g id="use3796-7" data-name="use3796">
                      <g id="use3794-8" data-name="use3794">
                        <g id="use3792-9" data-name="use3792">
                          <g id="use3790-10" data-name="use3790">
                            <g id="use3780-15" data-name="use3780">
                              <path id="path3778-16" data-name="path3778" class="cls-2" d="M46.51,344.69c5.88-.06,6.17-10.4,7.28-16.07-.26,6-1.27,16.22,4.72,16.5-6-.52-6.43,7.62-7,14.68.73-6.88.76-15.23-5-15.11Z" transform="translate(0.01 -3.17)"/>
                            </g>
                          </g>
                        </g>
                      </g>
                    </g>
                  </g>
                </g>
              </g>
            </g>
          </g>
        </g>
        <g id="use3914">
          <g id="use3796-8" data-name="use3796">
            <g id="use3794-9" data-name="use3794">
              <g id="use3792-10" data-name="use3792">
                <g id="use3790-11" data-name="use3790">
                  <g id="use3780-16" data-name="use3780">
                    <path id="path3778-17" data-name="path3778" class="cls-2" d="M39.94,188.64c5.89-.06,6.17-10.39,7.29-16.07-.26,6-1.28,16.22,4.71,16.5-6-.51-6.42,7.62-7,14.68.73-6.88.76-15.23-5-15.11Z" transform="translate(0.01 -3.17)"/>
                  </g>
                </g>
              </g>
            </g>
          </g>
        </g>
      </g>
    </g>
    <g id="g4906" class="cls-3">
      <g id="g4016">
        <path id="path2846" class="cls-4" d="M152.84,239.2c-1.29-12.54-7.63-17.51-14.14-22.22,1.43,8.5,2.5,16.64,0,21.21-8-8.21-19.39-13.26-35.36-14.14,7.06,8.08,11.41,16.16,13.13,24.24-15.68-2.1-31.82-2.84-49.49,1,10,3.95,23.61,4.51,26.26,15.15-14.19,16.84-29,33.21-37.37,54.55,9.75-5.68,19.14-9.9,26.26-5.05C74.74,331,70.48,330.59,59.91,365.47c11.16-11.25,10.48-5.27,15.15-7.07l39.4,23.23c-1,5.76,2.91,6.52-4,18.19,25.49-14.49,37.72-30.31,56.57-45.46,1.5,7.12.77,17.26-5,34.34,21.39-20.07,26.8-34.59,33.34-49.49,7.21,4.54,14,11.82,19.19,28.28,2.55-23.09-4-37.07-9.09-52.53.81-3.71,25.38,7.78,28.28,10.1-3.61-15.1-24.42-25.42-24.24-23.23,4-4,6.83-8.08,19.19-12.12-10.86-6.94-19.62-4.45-29.29-6.06L152.84,239.2Z" transform="translate(0.01 -3.17)"/>
        <path id="path2826" class="cls-5" d="M160.47,240s-40.58-21.33-69.29,18.57C66.2,293.34,72.4,395.39,46.9,432.9c33.84-35.38,127.72-59.31,152.86-90,28.27-34.53,5-74.29,5-74.29L160.47,240Z" transform="translate(0.01 -3.17)"/>
        <path id="path3810" class="cls-6" d="M51.33,428c49.15-58.72,85.36-55.33,114-89,21.39-25.15,12-56-3-64s-54.74-4.92-65,28C86.16,338.87,86,368.7,51.33,428Z" transform="translate(0.01 -3.17)"/>
        <path id="path3814" class="cls-7" d="M47.62,432.27c1.26,1.89,50.3-83,61.57-106.44,9.92-20.62,25-47.13,41.14-37.79,13,7.55,7.08,35.36-17.43,55-20.09,16.08-87.85,89.79-85.28,89.27Z" transform="translate(0.01 -3.17)"/>
      </g>
      <path id="path2822" class="cls-8" d="M149.34,329.49s48.75-1.09,58.84-29.42c8.06-22.61-6.71-51.48-22-37.67-14.78,13.34,3.16,22.82,2.8,35.69-.47,17.45-37,32-39.64,31.4Z" transform="translate(0.01 -3.17)"/>
      <path id="path2824" class="cls-8" d="M113.07,301.23s-3.68-48.62,23.52-61.44c21.72-10.22,51.89,1.65,39.64,18.22-11.83,16-23-.91-35.79.7-17.32,2.18-28.18,39.94-27.37,42.52Z" transform="translate(0.01 -3.17)"/>
      <path id="path3684" class="cls-9" d="M152.4,237.63s-7.13-2.12-19.81,6.12c-12.3,8-14.13,24.58-14.13,24.58s5.66-16.63,15-21.8A39.9,39.9,0,0,1,153,242l-.56-4.34Z" transform="translate(0.01 -3.17)"/>
      <path id="path3682" class="cls-9" d="M206.38,275.22s4.57,5.87,1.5,20.68c-3,14.37-17.76,22.1-17.76,22.1s13.43-11.31,14.85-21.92a39.89,39.89,0,0,0-2.83-19.8l4.24-1.06Z" transform="translate(0.01 -3.17)"/>
      <path id="path2818" class="cls-10" d="M350.47,35.76s-99.72,5.73-150,87.14C144.93,212.84,139,307.19,139,307.19s101.12-29.43,168.57-110c65.33-78,47.14-160,42.86-161.43Z" transform="translate(0.01 -3.17)"/>
      <path id="path3709" class="cls-11" d="M294.42,53.89s-33.89,7.78-68.59,43.84c-44.9,46.67-66.11,132.58-66.11,132.58s18.55-55.22,77-125.45c13.08-15.71,51.48-41.63,64.14-41.1,3.35-3.9-6.46-10.5-6.46-9.87Z" transform="translate(0.01 -3.17)"/>
      <path id="path2900" class="cls-12" d="M158.83,219c.37,14.33-3.77,24.89,1.61,31.9,5.15,6.71,10.41,2.21,15.39,5.1,4.72,2.74,2.67,14.17,13.42,17.31,8.18,2.4,31.08-5.31,31.08-5.31-24.67,13.67-52.71,26.15-80,38.5,3.6-28.42,10.92-57.75,18.5-87.5Z" transform="translate(0.01 -3.17)"/>
      <path id="path3680" class="cls-13" d="M144.06,284.11s1.58-9.49,4.78-15.39a53.37,53.37,0,0,1,9.45-12.19S155,263.65,151.83,269c-2.9,5-7.48,15.3-7.77,15.1Z" transform="translate(0.01 -3.17)"/>
      <path id="path2820" class="cls-14" d="M113.81,340.53c6.1-16,18.43-45.64,28.44-58.64,30.21-39.27,47.73-26,17.85,14-10.1,13.53-32.44,33.62-46.29,44.67Z" transform="translate(0.01 -3.17)"/>
      <path id="path3838" class="cls-15" d="M291.83,49.29C303.43,74.8,324.71,89.56,355,93.75c0,0,8.88-52.17-1.4-61-5.47-4.68-56.57,10.83-61.75,16.5Z" transform="translate(0.01 -3.17)"/>
      <path id="path2848" class="cls-16" d="M174.06,173.54c5,58.63,81.38,72.84,85.61,69.7-11.78,8.62-14.48,11.17-26.26,18.44C195,262.63,167,237.18,163,201.82,166.68,188,167,188,174.06,173.54Z" transform="translate(0.01 -3.17)"/>
      <path id="path2850" class="cls-16" d="M167,191.47c5.44,30,25.55,58.86,74.25,64.9" transform="translate(0.01 -3.17)"/>
      <path id="path2852" class="cls-16" d="M174.56,179.1l-10.61,28" transform="translate(0.01 -3.17)"/>
      <path id="path2854" class="cls-16" d="M230.88,261.43l23.49-17.93" transform="translate(0.01 -3.17)"/>
      <path id="path2856" class="cls-17" d="M167,218.21l10.88-28.5" transform="translate(0.01 -3.17)"/>
      <path id="path2858" class="cls-16" d="M220.52,260.67,241.23,241" transform="translate(0.01 -3.17)"/>
      <path id="path2860" class="cls-16" d="M187.44,246.53l16.41-23.23" transform="translate(0.01 -3.17)"/>
      <path id="path2862" class="cls-16" d="M204.61,256.88l20.46-21.46" transform="translate(0.01 -3.17)"/>
      <path id="path2864" class="cls-16" d="M174.06,233.4l13.39-25.25" transform="translate(0.01 -3.17)"/>
      <path id="path2866" class="cls-18" d="M177.26,217.61c-2.66-4.65-4.89-9.47-4.89-10.57a68.72,68.72,0,0,1,2.62-7.67l2.62-6.88,2.33,4.71a74.27,74.27,0,0,0,4.38,7.63,20.35,20.35,0,0,1,2.05,3.28c0,.21-1.55,3.31-3.44,6.89l-3.43,6.52-2.24-3.91Z" transform="translate(0.01 -3.17)"/>
      <path id="path2868" class="cls-18" d="M182.91,241.82a73.61,73.61,0,0,1-5.67-6.25l-2-2.62,2.13-4.13c1.17-2.27,2.18-4.19,2.24-4.27a17.15,17.15,0,0,1,2.14,2.55,82.22,82.22,0,0,0,6.31,6.92l4.28,4.22-2.5,3.48a27.6,27.6,0,0,1-2.87,3.6C186.77,245.39,184.94,243.82,182.91,241.82Z" transform="translate(0.01 -3.17)"/>
      <path id="path3816" class="cls-19" d="M218.4,262.84c43.48-38.86,83.24-87,123-135.06,0,0-18.38,46.67-48.79,79.2s-74.25,58-74.25,55.86Z" transform="translate(0.01 -3.17)"/>
      <path id="path2870" class="cls-18" d="M206.62,245.29c-5-2.64-10.92-6.41-11.49-7.33-.34-.55,8.69-13.61,9.18-13.3l3.56,2.37c1.79,1.2,6.09,3.63,9.57,5.41l6.31,3.23-5.75,6c-3.16,3.31-5.89,6.07-6.06,6.13a37.49,37.49,0,0,1-5.32-2.52Z" transform="translate(0.01 -3.17)"/>
      <path id="path2872" class="cls-18" d="M216.12,259.4c-4.5-1-9.77-2.63-9.64-3a37.54,37.54,0,0,1,3-3.4l2.89-3,5.86,2a57.81,57.81,0,0,0,6.74,2c.48,0,.87.1.87.21a31.24,31.24,0,0,1-2.87,3C220,260,219.57,260.16,216.12,259.4Z" transform="translate(0.01 -3.17)"/>
      <path id="path2876" class="cls-18" d="M232.75,254.25a16.35,16.35,0,0,1-3-.83,63.16,63.16,0,0,1,5.74-5.91l5.92-5.7,5.1,1.09c2.8.6,5.18,1.17,5.28,1.26a73.4,73.4,0,0,1-6.73,5.48c-7.41,5.68-7.37,5.66-12.27,4.61Z" transform="translate(0.01 -3.17)"/>
      <path id="path2878" class="cls-20" d="M232.34,261l3-2.32,2.9-2.2.77.12a4.86,4.86,0,0,1,.82.17c.05.05-2.22,1.55-4.84,3.19-1.48.93-1.93,1.15-2.31,1.15s-.43-.05-.36-.11Z" transform="translate(0.01 -3.17)"/>
      <path id="path2880" class="cls-20" d="M166.36,215.17c-.64-2.07-1-3.55-1.54-5.72l-.42-1.87,1.71-4.54c.94-2.49,1.75-4.53,1.79-4.53a1.87,1.87,0,0,1,.24.66c.32,1.28,1.5,5.05,2,6.41l.5,1.37-1.84,4.84c-1,2.67-1.87,4.85-1.91,4.85a8.88,8.88,0,0,1-.53-1.47Z" transform="translate(0.01 -3.17)"/>
      <path id="path2882" class="cls-20" d="M168.11,194.14c-.07-.2-.6-2.72-.61-2.94s3-7.62,4.69-11.73l1.52-3.6.22,1.42A4.44,4.44,0,0,1,174,179c-.07.14-1.37,3.54-2.89,7.56l-2.86,7.57c-.08.2-.12.21-.17.06Z" transform="translate(0.01 -3.17)"/>
      <path id="path2884" class="cls-21" d="M170.14,201.25a26.92,26.92,0,0,1-1-4.48,63.25,63.25,0,0,1,2.67-8.1l2.67-7.1,1.09,4.15c.6,2.29,1.09,4.36,1.08,4.61,0,.43-5,13.87-5.3,14.22a16.47,16.47,0,0,1-1.17-3.3Z" transform="translate(0.01 -3.17)"/>
      <path id="path2886" class="cls-22" d="M163.79,203.84c-.11-.85-.21-1.7-.21-1.88,0-.4,3-8.61,3.12-8.61a8.9,8.9,0,0,1,.4,1.5l.33,1.51-1.63,4.28-1.71,4.51c-.06.16-.17-.32-.3-1.31Z" transform="translate(0.01 -3.17)"/>
      <path id="path2888" class="cls-22" d="M173.2,230.2a69.22,69.22,0,0,1-5.36-10.85l-.35-.94,1.79-4.68,1.89-4.91c.07-.17.29.22.83,1.5A80.9,80.9,0,0,0,178,221.51l1,1.49-2.31,4.36c-1.27,2.4-2.35,4.37-2.4,4.37a13.45,13.45,0,0,1-1-1.53Z" transform="translate(0.01 -3.17)"/>
      <path id="path2890" class="cls-22" d="M192.2,236.07a69.79,69.79,0,0,1-10.71-11.47l-1.24-1.66,3.7-7,3.69-7,.3.35a86.67,86.67,0,0,0,8.58,8.92c1.6,1.42,4.87,4.08,5.9,4.81a2,2,0,0,1,.53.45c0,.07-9.24,13.22-9.49,13.51a5.33,5.33,0,0,1-1.26-.93Z" transform="translate(0.01 -3.17)"/>
      <path id="path2892" class="cls-22" d="M202.77,255.53a66.46,66.46,0,0,1-13.47-7.72c-1.23-.91-1.34-1-1.19-1.23l2.84-4,2.68-3.79,1.3,1a83.09,83.09,0,0,0,10.65,6.7c1.55.81,4.54,2.23,5.32,2.53.33.13.31.15-1.54,2.09-1,1.09-2.57,2.69-3.42,3.57l-1.54,1.59-1.63-.69Z" transform="translate(0.01 -3.17)"/>
      <path id="path2894" class="cls-22" d="M225.64,252.84c-1-.25-2.72-.75-3.9-1.1-3.17-1-8.45-2.86-8.44-3.06s11.92-12.58,12.09-12.58a7.36,7.36,0,0,1,1.18.43c2.74,1.17,9.29,3.46,12.61,4.4.43.13.78.28.77.35s-8.7,8.42-12,11.49l-.56.53-1.75-.46Z" transform="translate(0.01 -3.17)"/>
      <path id="path2896" class="cls-22" d="M226.77,261c-.41,0-1.66-.12-2.77-.23s-2.11-.18-2.22-.18-.2,0-.18-.1,4.54-4.39,5.81-5.56l.39-.36,2.67.56c1.47.31,3.44.69,4.38.85a8.4,8.4,0,0,1,1.66.37c0,.05-1.31,1.05-2.85,2.22s-2.89,2.22-3,2.33-1.62.22-3.9.1Z" transform="translate(0.01 -3.17)"/>
      <path id="path2898" class="cls-22" d="M240.35,255.69c-.65-.1-.76-.15-.63-.28s14.37-11,14.68-11.18.57-.13,1.56,0l1.3.1-3.62,2.7c-6.39,4.76-12.18,8.89-12.4,8.85l-.89-.14Z" transform="translate(0.01 -3.17)"/>
      <path id="path2902" class="cls-13" d="M113.93,292.54c3.43-13,16.26-40.17,32-34.83l1.06-5.65c-23,0-28,20.22-33.06,40.48Z" transform="translate(0.01 -3.17)"/>
      <path id="path3676" class="cls-13" d="M157.76,328c12.67-4.6,38.53-19.83,31.78-35l5.54-1.57c2.07,22.88-17.6,29.75-37.32,36.59Z" transform="translate(0.01 -3.17)"/>
      <path id="path3678" class="cls-13" d="M161.08,295s9-3.44,14.13-7.75a53.43,53.43,0,0,0,10.06-11.69s-6.32,4.69-10.94,8.81c-4.3,3.84-13.5,10.38-13.25,10.63Z" transform="translate(0.01 -3.17)"/>
      <path id="path3707" class="cls-9" d="M123.3,326.13s19.09-40.66,27.58-50.56,19.49-16.33,21.56-14.85c3.38,2.42-4.21,16-8,22.11-7.11,11.49-28.1,29.06-41.18,43.3Z" transform="translate(0.01 -3.17)"/>
      <path id="path3840" class="cls-15" d="M375.83,3.54l-32.5,29c2.79,6.9,7.71,10.26,14.5,10.5Z" transform="translate(0.01 -3.17)"/>
      <path id="path3842" class="cls-23" d="M374.67,3.69,344.62,34.1c-17.78,4-34.31,11.11-50.21,19.8l6.72,10.6c13.29-13.37,29.27-21.35,46.32-27.22L374.67,3.69Z" transform="translate(0.01 -3.17)"/>
      <path id="path3844" class="cls-24" d="M339.83,89.54c7.65-13.72,10.05-31.38,12.5-49l14.5-23-12,25.5c-.55,17.47-1.51,34.66-6,49.5Z" transform="translate(0.01 -3.17)"/>
      <path id="path3866" class="cls-25" d="M206.33,213a320.8,320.8,0,0,1,43-69c28-34,76-77,76-77s-40,59-63,91S206.33,216,206.33,213Z" transform="translate(0.01 -3.17)"/>
      <g id="g4843">
        <path id="path2832" class="cls-26" d="M261.31,177.63c-8.07,10.69-22.56,13.37-32.37,6s-11.21-22.08-3.14-32.77,22.56-13.37,32.37-6S269.38,166.93,261.31,177.63Z" transform="translate(0.01 -3.17)"/>
        <path id="path2834" class="cls-27" d="M256.54,174c-6,7.94-16.74,9.92-24,4.43s-8.32-16.38-2.33-24.31,16.74-9.92,24-4.43S262.53,166.09,256.54,174Z" transform="translate(0.01 -3.17)"/>
        <path id="path3733" class="cls-28" d="M259.16,176c-7,9.28-19.66,11.53-28.28,5S221,161.73,228,152.46s19.66-11.53,28.27-5S266.16,166.73,259.16,176Z" transform="translate(0.01 -3.17)"/>
      </g>
    </g>
  </g>
</svg>
