<svg id="svg2" xmlns="http://www.w3.org/2000/svg" xmlns:xlink="http://www.w3.org/1999/xlink" width="329.8" height="430.08" viewBox="0 0 329.8 430.08">
  <defs>
    <style>
      .cls-1 {
        filter: url(#filter4961);
      }

      .cls-2 {
        fill: #a40;
      }

      .cls-12, .cls-13, .cls-16, .cls-2, .cls-3, .cls-6, .cls-8 {
        stroke: #000;
      }

      .cls-3 {
        fill: #fc0;
      }

      .cls-4 {
        fill: #ff0;
      }

      .cls-17, .cls-5, .cls-9 {
        fill: #fff;
      }

      .cls-15, .cls-5 {
        opacity: 0.7;
      }

      .cls-10, .cls-14, .cls-15, .cls-16, .cls-17, .cls-5, .cls-9 {
        isolation: isolate;
      }

      .cls-12, .cls-6 {
        fill: #ccc;
      }

      .cls-7 {
        fill: #666;
      }

      .cls-8 {
        fill: #b3b3b3;
      }

      .cls-9 {
        opacity: 0.5;
      }

      .cls-10 {
        fill: #d3bc5f;
        opacity: 0.77;
      }

      .cls-11 {
        fill: #ffd300;
      }

      .cls-12 {
        stroke-width: 0.72px;
      }

      .cls-13 {
        fill: #333;
      }

      .cls-14 {
        fill: #003;
        opacity: 0.33;
      }

      .cls-15 {
        fill: #d9d9d9;
      }

      .cls-16 {
        opacity: 0.44;
      }

      .cls-17 {
        opacity: 0.19;
      }

      .cls-18 {
        fill: #1a1a1a;
      }

      .cls-18, .cls-19 {
        stroke: #1a1a1a;
      }

      .cls-19 {
        fill: url(#Sfumatura_senza_nome);
      }

      .cls-20 {
        fill: none;
        stroke: #fff;
        stroke-width: 2.15px;
      }
    </style>
    <filter id="filter4961" name="filter4961">
      <feGaussianBlur result="result0" stdDeviation="2" in="SourceAlpha"/>
      <feComposite result="result3" operator="arithmetic" k2="1" k3="10" in="SourceGraphic" in2="result0"/>
      <feComposite result="result4" operator="in" k2="1" in="result3" in2="result3"/>
    </filter>
    <linearGradient id="Sfumatura_senza_nome" data-name="Sfumatura senza nome" x1="645.25" y1="294.03" x2="684.77" y2="291.81" gradientTransform="matrix(0.65, 0.49, 0.53, -0.71, -344.46, 45.37)" gradientUnits="userSpaceOnUse">
      <stop offset="0" stop-color="#939393"/>
      <stop offset="0.06" stop-color="#393939"/>
      <stop offset="0.13" stop-color="#3a3a3a"/>
      <stop offset="0.25" stop-color="#424242"/>
      <stop offset="0.4" stop-color="#343434"/>
      <stop offset="0.72" stop-color="#9b9b9b"/>
      <stop offset="1" stop-color="#424242"/>
    </linearGradient>
  </defs>
  <g id="layer1">
    <g id="g4906" class="cls-1">
      <g id="g4016">
        <path id="path2846" class="cls-2" d="M152.84,239.2c-1.29-12.54-7.63-17.51-14.14-22.22,1.43,8.5,2.5,16.64,0,21.21-8-8.21-19.39-13.26-35.36-14.14,7.06,8.08,11.41,16.16,13.13,24.24-15.68-2.1-31.82-2.84-49.49,1,10,3.95,23.61,4.51,26.26,15.15-14.19,16.84-29,33.21-37.37,54.55,9.75-5.68,19.14-9.9,26.26-5.05C74.74,331,70.48,330.59,59.91,365.47c11.16-11.25,10.48-5.27,15.15-7.07l39.4,23.23c-1,5.76,2.91,6.52-4,18.19,25.49-14.49,37.72-30.31,56.57-45.46,1.5,7.12.77,17.26-5,34.34,21.39-20.07,26.8-34.59,33.34-49.49,7.21,4.54,14,11.82,19.19,28.28,2.55-23.09-4-37.07-9.09-52.53.81-3.71,25.38,7.78,28.28,10.1-3.61-15.1-24.42-25.42-24.24-23.23,4-4,6.83-8.08,19.19-12.12-10.86-6.94-19.62-4.45-29.29-6.06L152.84,239.2Z" transform="translate(-46.48 -3.17)"/>
        <path id="path2826" class="cls-3" d="M160.47,240s-40.58-21.33-69.29,18.57C66.2,293.34,72.4,395.39,46.9,432.9c33.84-35.38,127.72-59.31,152.86-90,28.27-34.53,5-74.29,5-74.29L160.47,240Z" transform="translate(-46.48 -3.17)"/>
        <path id="path3810" class="cls-4" d="M51.33,428c49.15-58.72,85.36-55.33,114-89,21.39-25.15,12-56-3-64s-54.74-4.92-65,28C86.16,338.87,86,368.7,51.33,428Z" transform="translate(-46.48 -3.17)"/>
        <path id="path3814" class="cls-5" d="M47.62,432.27c1.26,1.89,50.3-83,61.57-106.44,9.92-20.62,25-47.13,41.14-37.79,13,7.55,7.08,35.36-17.43,55-20.09,16.08-87.85,89.79-85.28,89.27Z" transform="translate(-46.48 -3.17)"/>
      </g>
      <path id="path2822" class="cls-6" d="M149.34,329.49s48.75-1.09,58.84-29.42c8.06-22.61-6.71-51.48-22-37.67-14.78,13.34,3.16,22.82,2.8,35.69-.47,17.45-37,32-39.64,31.4Z" transform="translate(-46.48 -3.17)"/>
      <path id="path2824" class="cls-6" d="M113.07,301.23s-3.68-48.62,23.52-61.44c21.72-10.22,51.89,1.65,39.64,18.22-11.83,16-23-.91-35.79.7-17.32,2.18-28.18,39.94-27.37,42.52Z" transform="translate(-46.48 -3.17)"/>
      <path id="path3684" class="cls-7" d="M152.4,237.63s-7.13-2.12-19.81,6.12c-12.3,8-14.13,24.58-14.13,24.58s5.66-16.63,15-21.8A39.9,39.9,0,0,1,153,242l-.56-4.34Z" transform="translate(-46.48 -3.17)"/>
      <path id="path3682" class="cls-7" d="M206.38,275.22s4.57,5.87,1.5,20.68c-3,14.37-17.76,22.1-17.76,22.1s13.43-11.31,14.85-21.92a39.89,39.89,0,0,0-2.83-19.8l4.24-1.06Z" transform="translate(-46.48 -3.17)"/>
      <path id="path2818" class="cls-8" d="M350.47,35.76s-99.72,5.73-150,87.14C144.93,212.84,139,307.19,139,307.19s101.12-29.43,168.57-110c65.33-78,47.14-160,42.86-161.43Z" transform="translate(-46.48 -3.17)"/>
      <path id="path3709" class="cls-9" d="M294.42,53.89s-33.89,7.78-68.59,43.84c-44.9,46.67-66.11,132.58-66.11,132.58s18.55-55.22,77-125.45c13.08-15.71,51.48-41.63,64.14-41.1,3.35-3.9-6.46-10.5-6.46-9.87Z" transform="translate(-46.48 -3.17)"/>
      <path id="path2900" class="cls-10" d="M158.83,219c.37,14.33-3.77,24.89,1.61,31.9,5.15,6.71,10.41,2.21,15.39,5.1,4.72,2.74,2.67,14.17,13.42,17.31,8.18,2.4,31.08-5.31,31.08-5.31-24.67,13.67-52.71,26.15-80,38.5,3.6-28.42,10.92-57.75,18.5-87.5Z" transform="translate(-46.48 -3.17)"/>
      <path id="path3680" class="cls-11" d="M144.06,284.11s1.58-9.49,4.78-15.39a53.37,53.37,0,0,1,9.45-12.19S155,263.65,151.83,269c-2.9,5-7.48,15.3-7.77,15.1Z" transform="translate(-46.48 -3.17)"/>
      <path id="path2820" class="cls-12" d="M113.81,340.53c6.1-16,18.43-45.64,28.44-58.64,30.21-39.27,47.73-26,17.85,14-10.1,13.53-32.44,33.62-46.29,44.67Z" transform="translate(-46.48 -3.17)"/>
      <path id="path3838" class="cls-13" d="M291.83,49.29C303.43,74.8,324.71,89.56,355,93.75c0,0,8.88-52.17-1.4-61-5.47-4.68-56.57,10.83-61.75,16.5Z" transform="translate(-46.48 -3.17)"/>
      <path id="path3816" class="cls-14" d="M218.4,262.84c43.48-38.86,83.24-87,123-135.06,0,0-18.38,46.67-48.79,79.2s-74.25,58-74.25,55.86Z" transform="translate(-46.48 -3.17)"/>
      <path id="path2902" class="cls-11" d="M113.93,292.54c3.43-13,16.26-40.17,32-34.83l1.06-5.65c-23,0-28,20.22-33.06,40.48Z" transform="translate(-46.48 -3.17)"/>
      <path id="path3676" class="cls-11" d="M157.76,328c12.67-4.6,38.53-19.83,31.78-35l5.54-1.57c2.07,22.88-17.6,29.75-37.32,36.59Z" transform="translate(-46.48 -3.17)"/>
      <path id="path3678" class="cls-11" d="M161.08,295s9-3.44,14.13-7.75a53.43,53.43,0,0,0,10.06-11.69s-6.32,4.69-10.94,8.81c-4.3,3.84-13.5,10.38-13.25,10.63Z" transform="translate(-46.48 -3.17)"/>
      <path id="path3707" class="cls-7" d="M123.3,326.13s19.09-40.66,27.58-50.56,19.49-16.33,21.56-14.85c3.38,2.42-4.21,16-8,22.11-7.11,11.49-28.1,29.06-41.18,43.3Z" transform="translate(-46.48 -3.17)"/>
      <path id="path3840" class="cls-13" d="M375.83,3.54l-32.5,29c2.79,6.9,7.71,10.26,14.5,10.5Z" transform="translate(-46.48 -3.17)"/>
      <path id="path3842" class="cls-15" d="M374.67,3.69,344.62,34.1c-17.78,4-34.31,11.11-50.21,19.8l6.72,10.6c13.29-13.37,29.27-21.35,46.32-27.22L374.67,3.69Z" transform="translate(-46.48 -3.17)"/>
      <path id="path3844" class="cls-16" d="M339.83,89.54c7.65-13.72,10.05-31.38,12.5-49l14.5-23-12,25.5c-.55,17.47-1.51,34.66-6,49.5Z" transform="translate(-46.48 -3.17)"/>
      <path id="path3866" class="cls-17" d="M206.33,213a320.8,320.8,0,0,1,43-69c28-34,76-77,76-77s-40,59-63,91S206.33,216,206.33,213Z" transform="translate(-46.48 -3.17)"/>
      <g id="g4843">
        <path id="path2832" class="cls-18" d="M261.31,177.63c-8.07,10.69-22.56,13.37-32.37,6s-11.21-22.08-3.14-32.77,22.56-13.37,32.37-6S269.38,166.93,261.31,177.63Z" transform="translate(-46.48 -3.17)"/>
        <path id="path2834" class="cls-19" d="M256.54,174c-6,7.94-16.74,9.92-24,4.43s-8.32-16.38-2.33-24.31,16.74-9.92,24-4.43S262.53,166.09,256.54,174Z" transform="translate(-46.48 -3.17)"/>
        <path id="path3733" class="cls-20" d="M259.16,176c-7,9.28-19.66,11.53-28.28,5S221,161.73,228,152.46s19.66-11.53,28.27-5S266.16,166.73,259.16,176Z" transform="translate(-46.48 -3.17)"/>
      </g>
    </g>
  </g>
</svg>
